<svg preserveAspectRatio="none" overflow="visible" style="display: block;" width="210.733" height="225" viewBox="0 0 210.733 225" fill="none" xmlns="http://www.w3.org/2000/svg">
<g id="Group 37">
<g id="Vector">
<path d="M67.4645 176.446L56.2402 149.792V172.089C56.2402 175.812 58.6993 176.168 58.9372 176.168V176.208H52.631V176.168C52.869 176.168 55.328 175.812 55.328 172.089V149.436C55.328 145.713 53.1863 145.356 52.988 145.356V145.317H60.2064L69.8838 168.406L79.4423 145.317H86.4624V145.356C86.2244 145.356 84.0827 145.713 84.0827 149.436V172.089C84.0827 175.812 86.2244 176.168 86.4624 176.168V176.208H76.2694V176.168C76.5073 176.168 78.6094 175.812 78.6094 172.089V149.515L67.4645 176.446Z" fill="#D6CCCC"/>
<path d="M95.0383 176.604C92.7776 176.604 90.8342 175.891 89.5253 174.505C88.4148 173.396 87.7406 171.733 87.7406 169.634V157.158C87.7406 153.554 85.7178 153.238 85.5195 153.238V153.158H93.1346V168.96C93.1346 170.188 93.2932 171.535 93.8088 172.644C94.4434 173.911 95.5142 174.743 97.1404 174.743C100.234 174.743 102.614 171.851 102.733 168.089V157.158C102.733 153.554 100.71 153.238 100.512 153.238V153.158H108.127V172.248C108.127 175.812 110.189 176.168 110.387 176.168V176.208H102.733V171.772C101.781 174.149 99.4804 176.604 95.0383 176.604Z" fill="#D6CCCC"/>
<path d="M119.545 176.564C116.015 176.564 114.587 176.208 111.534 176.208V169H111.653C111.89 170.386 112.208 171.931 113.041 173.158C114.072 174.663 115.896 175.733 119.307 175.733C122.877 175.733 124.503 174.069 124.503 172.208C124.503 170.228 123.273 168.921 120.18 167.495L115.46 165.277C112.604 163.931 111.177 162.069 111.177 159.495C111.177 156.05 114.35 152.842 120.299 152.842C123.829 152.842 126.129 153.594 127.557 153.594V159.851H127.478C127.16 158.386 126.645 157.119 125.812 156.01C124.582 154.545 122.797 153.673 120.299 153.673C117.522 153.673 115.063 154.743 115.063 157.04C115.063 158.465 116.333 159.772 118.435 160.723L123.829 163.297C127.319 164.921 128.866 167.139 128.866 169.752C128.866 174.188 125.137 176.564 119.545 176.564Z" fill="#D6CCCC"/>
<path d="M131.802 157.158C131.802 153.554 129.74 153.238 129.541 153.238V153.158H137.196V172.248C137.196 175.812 139.219 176.168 139.457 176.168V176.208H129.541V176.168C129.74 176.168 131.802 175.812 131.802 172.248V157.158ZM131.366 147.97C131.366 146.347 132.714 145 134.341 145C135.967 145 137.315 146.347 137.315 147.97C137.315 149.594 135.967 150.941 134.341 150.941C132.714 150.941 131.366 149.594 131.366 147.97Z" fill="#D6CCCC"/>
<path d="M150.276 176.644C142.74 176.644 138.933 171.495 138.933 164.842C138.933 158.307 142.978 152.762 151.029 152.762C154.242 152.762 157.018 153.95 158.208 153.95V160.446H158.089C157.931 159.455 157.732 157.198 156.304 155.535C155.392 154.465 154.004 153.634 151.902 153.634C146.548 153.634 144.485 158.624 144.485 164.762C144.485 170.782 147.341 175.139 152.259 175.139C155.709 175.139 157.653 173.238 158.644 171.495L158.763 171.535C158.406 172.644 156.542 176.644 150.276 176.644Z" fill="#D6CCCC"/>
<path d="M24.035 185.713L22.4882 191.891H22.4485C22.5675 191.416 23.5194 186.188 20.5051 186.188H10.907L7.85301 200.525H16.1423C19.1566 200.525 19.7912 198.465 19.8705 198.188L19.9102 198.228L19.2359 202.228L19.5532 200.168L18.9186 204.168H18.8393C18.8789 203.931 19.0773 201 16.063 201H7.77368L4.56109 216.129H11.7795C17.0545 216.129 18.9583 211.099 19.1169 210.465L19.1962 210.505L17.6494 216.604H0V216.564C0.158647 216.564 1.58647 216.208 2.22105 213.277L7.37707 189.04C8.01166 186.109 6.58383 185.752 6.46485 185.752V185.713H24.035Z" fill="#D6CCCC"/>
<path d="M24.685 197.356C23.9711 194.426 22.3053 194.069 22.0674 194.069V194.03H27.6597V194.069C27.62 194.069 26.8664 194.347 27.4217 196.802L31.1896 212.802L41.1843 196.723C42.4931 194.584 41.1446 194.069 41.105 194.069V194.03H45.3091V194.069C44.9918 194.069 43.0484 194.703 41.4619 197.238L29.2461 216.921L24.685 197.356Z" fill="#D6CCCC"/>
<path d="M42.0726 208.089C42.0726 200.485 47.308 193.634 54.923 193.634C59.8411 193.634 61.8242 196.564 61.1896 199.495C60.2377 204.05 54.3678 205.158 45.3646 205.238C45.1663 206.347 45.0869 207.455 45.0869 208.446C45.0869 213.594 48.3392 216.05 51.9484 216.05C56.3905 216.05 59.1668 213.436 60.1584 211.97H60.198C59.2065 213.911 56.2715 217 50.9569 217C45.1266 217 42.0726 213.119 42.0726 208.089ZM45.4439 204.762C54.1298 204.525 57.8977 202.109 58.5719 198.941C59.2065 196.089 57.6597 194.188 54.7247 194.188C49.3704 194.188 46.4354 199.733 45.4439 204.762Z" fill="#D6CCCC"/>
<path d="M60.6046 216.604V216.564C60.7632 216.564 62.191 216.208 62.8256 213.277L66.2365 197.356C66.8711 194.426 65.4433 194.069 65.3243 194.069V194.03H69.8854L68.7352 199.337C70.3217 196.485 72.9393 193.634 77.2625 193.634C78.1747 193.634 79.3645 193.792 79.8405 193.792L78.373 200.604H78.3333C78.4126 199.059 78.4126 197.554 77.9367 196.525C77.5797 195.574 76.8262 194.98 75.4777 194.98C72.7014 194.98 69.5284 197.713 68.3782 201.079L65.7606 213.277C65.126 216.208 66.5538 216.564 66.6728 216.564V216.604H60.6046Z" fill="#D6CCCC"/>
<path d="M77.3452 225C76.7106 225 76.314 224.921 76.0363 224.842L76.8296 221.119H76.8692C76.9882 221.673 77.9401 222.149 78.9713 222.149C80.5181 222.149 82.2236 221.673 84.6826 217.871L85.7138 216.287L81.2717 197.356C80.5974 194.426 78.9317 194.069 78.6937 194.069V194.03H84.286V194.069C84.2463 194.069 83.4927 194.347 84.048 196.802L87.8159 212.802L97.8106 196.723C99.1194 194.584 97.7709 194.069 97.7313 194.069V194.03H101.935V194.069C101.618 194.069 99.6747 194.703 98.0882 197.238L84.1273 219.733C81.6683 223.693 79.9629 225 77.3452 225Z" fill="#D6CCCC"/>
<path d="M102.818 197.356C102.62 194.347 101.192 194.069 101.033 194.069V194.03H106.546V194.069C106.467 194.069 105.396 194.307 105.555 196.802L106.348 211.97L117.691 193.792L121.657 212.05L128.915 196.762C129.986 194.505 128.836 194.069 128.836 194.069V194.03H133V194.069C132.683 194.069 130.502 194.584 129.233 197.277L119.912 216.921L115.748 197.832L103.849 216.921L102.818 197.356Z" fill="#D6CCCC"/>
<path d="M148.643 217C147.056 217 146.263 215.97 146.62 214.386L149.277 201.95C149.674 200.129 149.713 198.663 149.436 197.515C148.92 195.574 147.572 194.584 145.311 194.584C141.543 194.584 137.537 197.713 136.387 201.079L133.769 213.277C133.135 216.208 134.563 216.564 134.682 216.564V216.604H128.613V216.564C128.772 216.564 130.2 216.208 130.835 213.277L136.189 188.248C136.823 185.317 135.396 184.96 135.277 184.96V184.921H139.838L136.744 199.337C138.331 196.485 141.741 193.634 146.263 193.634C149.277 193.634 151.498 194.584 152.331 196.604C152.767 197.713 152.807 199.218 152.45 200.842L149.674 213.832C149.436 214.901 149.594 215.455 150.388 215.455C151.776 215.455 153.045 214.03 153.283 213.515H153.323C153.085 214.149 151.34 217 148.643 217Z" fill="#D6CCCC"/>
<path d="M155.48 208.089C155.48 200.485 160.716 193.634 168.331 193.634C173.249 193.634 175.232 196.564 174.597 199.495C173.645 204.05 167.775 205.158 158.772 205.238C158.574 206.347 158.494 207.455 158.494 208.446C158.494 213.594 161.747 216.05 165.356 216.05C169.798 216.05 172.574 213.436 173.566 211.97H173.606C172.614 213.911 169.679 217 164.364 217C158.534 217 155.48 213.119 155.48 208.089ZM158.851 204.762C167.537 204.525 171.305 202.109 171.979 198.941C172.614 196.089 171.067 194.188 168.132 194.188C162.778 194.188 159.843 199.733 158.851 204.762Z" fill="#D6CCCC"/>
<path d="M174.012 216.604V216.564C174.171 216.564 175.599 216.208 176.233 213.277L179.644 197.356C180.279 194.426 178.851 194.069 178.732 194.069V194.03H183.293L182.143 199.337C183.729 196.485 186.347 193.634 190.67 193.634C191.582 193.634 192.772 193.792 193.248 193.792L191.781 200.604H191.741C191.82 199.059 191.82 197.554 191.344 196.525C190.987 195.574 190.234 194.98 188.885 194.98C186.109 194.98 182.936 197.713 181.786 201.079L179.168 213.277C178.534 216.208 179.961 216.564 180.08 216.564V216.604H174.012Z" fill="#D6CCCC"/>
<path d="M191.501 208.089C191.501 200.485 196.736 193.634 204.351 193.634C209.269 193.634 211.253 196.564 210.618 199.495C209.666 204.05 203.796 205.158 194.793 205.238C194.595 206.347 194.515 207.455 194.515 208.446C194.515 213.594 197.768 216.05 201.377 216.05C205.819 216.05 208.595 213.436 209.587 211.97H209.626C208.635 213.911 205.7 217 200.385 217C194.555 217 191.501 213.119 191.501 208.089ZM194.872 204.762C203.558 204.525 207.326 202.109 208 198.941C208.635 196.089 207.088 194.188 204.153 194.188C198.799 194.188 195.864 199.733 194.872 204.762Z" fill="#D6CCCC"/>
</g>
<path id="Union" d="M103.708 0C108.351 2.05208e-09 114.734 0.000250229 119.182 10.3126C123.479 20.2727 125.071 42.4734 130.403 43.9792V9.12905C130.403 1.86443 124.871 2.42357 122.105 2.05102V0.187292H158V2.05102C155.234 2.42357 149.701 1.86443 149.701 9.12905V105.059C149.701 112.324 155.234 111.765 158 112.137V114H122.105V112.137C124.871 111.765 130.402 112.324 130.403 105.059V44.0619H127.694C126.533 44.0619 118.602 42.9375 112.606 33.0002C106.61 23.0627 102.161 10.3126 95.9708 10.3126C89.7813 10.3127 91.5225 18.937 94.037 23.2495C96.5516 27.562 112.607 50.0627 115.895 54.7502C119.183 59.4378 125.372 69.1875 125.373 80.2495C125.373 91.312 115.701 95.2501 112.606 95.2501C109.511 95.2501 93.6503 96.5623 85.1393 70.3127C76.6284 44.0629 74.5001 13.5004 65.409 13.5C56.3178 13.5 60.5728 40.5 61.3465 45.5625C62.1202 50.6251 72.7594 90.0004 83.3981 101.25C91.909 110.25 100.485 113.375 103.708 113.813H80.4968C72.1792 113.813 52.0625 103.125 52.0625 77.9997C52.0626 52.8749 57.6714 38.9994 57.6714 26.4369C57.6715 13.8746 59.4123 2.06251 48 2.06251V0.563025H72.7592C86.2994 0.563025 87.4594 19.8755 87.4594 25.5005C87.4594 31.1258 85.9128 46.1258 85.7194 57.563C85.5261 69.0004 91.5222 85.3121 105.642 80.8125C119.763 76.3125 113.186 60.5623 107.19 49.8749C101.193 39.1874 89.3945 22.6875 89.3944 12.3751C89.3944 2.06257 99.0661 0 103.708 0Z" fill="#D6CCCC"/>
</g>
</svg>
